<mxfile host="app.diagrams.net" modified="2022-01-10T17:42:45.469Z" agent="5.0 (Macintosh; Intel Mac OS X 10_15_7) AppleWebKit/537.36 (KHTML, like Gecko) Chrome/97.0.4692.71 Safari/537.36" etag="mVOygx2cSrRldN_sCCAy" version="16.2.4" type="github">
  <diagram id="QcE3eUY1xfdvnFjCT1fq" name="Page-1">
    <mxGraphModel dx="1796" dy="575" grid="1" gridSize="10" guides="1" tooltips="1" connect="1" arrows="1" fold="1" page="1" pageScale="1" pageWidth="850" pageHeight="1100" math="0" shadow="0">
      <root>
        <mxCell id="0" />
        <mxCell id="1" parent="0" />
        <mxCell id="2qEzOm92XaDQ2icEULAy-5" value="" style="rounded=1;whiteSpace=wrap;html=1;fillColor=#FFD2C4;" vertex="1" parent="1">
          <mxGeometry x="60" y="641" width="160" height="60" as="geometry" />
        </mxCell>
        <mxCell id="CEnsXvZs_I40ct4Bp590-8" value="" style="group" parent="1" vertex="1" connectable="0">
          <mxGeometry x="185" y="250" width="30" height="110" as="geometry" />
        </mxCell>
        <mxCell id="CEnsXvZs_I40ct4Bp590-5" value="" style="endArrow=classic;html=1;entryX=0.5;entryY=1;entryDx=0;entryDy=0;" parent="CEnsXvZs_I40ct4Bp590-8" target="CEnsXvZs_I40ct4Bp590-1" edge="1">
          <mxGeometry width="50" height="50" relative="1" as="geometry">
            <mxPoint x="15" y="110" as="sourcePoint" />
            <mxPoint x="255" y="10" as="targetPoint" />
          </mxGeometry>
        </mxCell>
        <mxCell id="CEnsXvZs_I40ct4Bp590-7" value="" style="group" parent="CEnsXvZs_I40ct4Bp590-8" vertex="1" connectable="0">
          <mxGeometry width="30" height="30" as="geometry" />
        </mxCell>
        <mxCell id="CEnsXvZs_I40ct4Bp590-4" value="" style="ellipse;whiteSpace=wrap;html=1;aspect=fixed;" parent="CEnsXvZs_I40ct4Bp590-7" vertex="1">
          <mxGeometry width="30" height="30" as="geometry" />
        </mxCell>
        <mxCell id="2qEzOm92XaDQ2icEULAy-2" value="" style="edgeStyle=orthogonalEdgeStyle;rounded=0;orthogonalLoop=1;jettySize=auto;html=1;" edge="1" parent="1" source="CEnsXvZs_I40ct4Bp590-9" target="2qEzOm92XaDQ2icEULAy-1">
          <mxGeometry relative="1" as="geometry" />
        </mxCell>
        <mxCell id="CEnsXvZs_I40ct4Bp590-9" value="" style="rounded=1;whiteSpace=wrap;html=1;fillColor=#FFD2C4;" parent="1" vertex="1">
          <mxGeometry x="120" y="360" width="160" height="110" as="geometry" />
        </mxCell>
        <mxCell id="CEnsXvZs_I40ct4Bp590-11" value="UI" style="text;html=1;strokeColor=none;fillColor=none;align=center;verticalAlign=middle;whiteSpace=wrap;rounded=0;" parent="1" vertex="1">
          <mxGeometry x="175" y="380" width="40" height="20" as="geometry" />
        </mxCell>
        <mxCell id="CEnsXvZs_I40ct4Bp590-12" value="Event" style="text;html=1;strokeColor=none;fillColor=none;align=center;verticalAlign=middle;whiteSpace=wrap;rounded=0;" parent="1" vertex="1">
          <mxGeometry x="145" y="240" width="40" height="20" as="geometry" />
        </mxCell>
        <mxCell id="CEnsXvZs_I40ct4Bp590-23" value="" style="group" parent="1" vertex="1" connectable="0">
          <mxGeometry x="265" y="40" width="30" height="110" as="geometry" />
        </mxCell>
        <mxCell id="CEnsXvZs_I40ct4Bp590-24" value="" style="endArrow=classic;html=1;entryX=0.025;entryY=0.545;entryDx=0;entryDy=0;entryPerimeter=0;" parent="CEnsXvZs_I40ct4Bp590-23" edge="1">
          <mxGeometry width="50" height="50" relative="1" as="geometry">
            <mxPoint x="13" y="110" as="sourcePoint" />
            <mxPoint x="223" y="109.95000000000005" as="targetPoint" />
          </mxGeometry>
        </mxCell>
        <mxCell id="CEnsXvZs_I40ct4Bp590-26" value="" style="ellipse;whiteSpace=wrap;html=1;aspect=fixed;" parent="1" vertex="1">
          <mxGeometry x="370" y="134" width="36" height="36" as="geometry" />
        </mxCell>
        <mxCell id="CEnsXvZs_I40ct4Bp590-32" value="Dispatch" style="text;html=1;strokeColor=none;fillColor=none;align=center;verticalAlign=middle;whiteSpace=wrap;rounded=0;" parent="1" vertex="1">
          <mxGeometry x="330" y="114" width="40" height="20" as="geometry" />
        </mxCell>
        <mxCell id="CEnsXvZs_I40ct4Bp590-33" value="" style="group" parent="1" vertex="1" connectable="0">
          <mxGeometry x="120" y="100" width="160" height="110" as="geometry" />
        </mxCell>
        <mxCell id="CEnsXvZs_I40ct4Bp590-1" value="" style="rounded=1;whiteSpace=wrap;html=1;fillColor=#F9F5FF;" parent="CEnsXvZs_I40ct4Bp590-33" vertex="1">
          <mxGeometry width="160" height="110" as="geometry" />
        </mxCell>
        <mxCell id="CEnsXvZs_I40ct4Bp590-2" value="Actions" style="text;html=1;strokeColor=none;fillColor=none;align=center;verticalAlign=middle;whiteSpace=wrap;rounded=0;" parent="CEnsXvZs_I40ct4Bp590-33" vertex="1">
          <mxGeometry x="60" y="20" width="40" height="20" as="geometry" />
        </mxCell>
        <mxCell id="CEnsXvZs_I40ct4Bp590-3" value="Action Creators" style="rounded=1;whiteSpace=wrap;html=1;" parent="CEnsXvZs_I40ct4Bp590-33" vertex="1">
          <mxGeometry x="30" y="60" width="100" height="30" as="geometry" />
        </mxCell>
        <mxCell id="CEnsXvZs_I40ct4Bp590-35" value="" style="group" parent="1" vertex="1" connectable="0">
          <mxGeometry x="520" y="90" width="160" height="110" as="geometry" />
        </mxCell>
        <mxCell id="CEnsXvZs_I40ct4Bp590-36" value="" style="rounded=1;whiteSpace=wrap;html=1;fillColor=#BDFFD5;" parent="CEnsXvZs_I40ct4Bp590-35" vertex="1">
          <mxGeometry x="-34" width="160" height="110" as="geometry" />
        </mxCell>
        <mxCell id="CEnsXvZs_I40ct4Bp590-37" value="Redux Saga" style="text;html=1;strokeColor=none;fillColor=none;align=center;verticalAlign=middle;whiteSpace=wrap;rounded=0;" parent="CEnsXvZs_I40ct4Bp590-35" vertex="1">
          <mxGeometry x="20" y="20" width="40" height="20" as="geometry" />
        </mxCell>
        <mxCell id="CEnsXvZs_I40ct4Bp590-38" value="Middleware" style="rounded=1;whiteSpace=wrap;html=1;" parent="CEnsXvZs_I40ct4Bp590-35" vertex="1">
          <mxGeometry y="60" width="100" height="30" as="geometry" />
        </mxCell>
        <mxCell id="CEnsXvZs_I40ct4Bp590-49" value="" style="endArrow=classic;html=1;exitX=1;exitY=0.25;exitDx=0;exitDy=0;entryX=-0.006;entryY=0.355;entryDx=0;entryDy=0;entryPerimeter=0;" parent="CEnsXvZs_I40ct4Bp590-35" edge="1">
          <mxGeometry width="50" height="50" relative="1" as="geometry">
            <mxPoint x="125" y="29.5" as="sourcePoint" />
            <mxPoint x="259.03999999999996" y="29.049999999999955" as="targetPoint" />
          </mxGeometry>
        </mxCell>
        <mxCell id="CEnsXvZs_I40ct4Bp590-40" value="" style="group" parent="1" vertex="1" connectable="0">
          <mxGeometry x="490" y="360" width="160" height="120" as="geometry" />
        </mxCell>
        <mxCell id="CEnsXvZs_I40ct4Bp590-41" value="" style="rounded=1;whiteSpace=wrap;html=1;fillColor=#99EBFF;" parent="CEnsXvZs_I40ct4Bp590-40" vertex="1">
          <mxGeometry width="160" height="110" as="geometry" />
        </mxCell>
        <mxCell id="CEnsXvZs_I40ct4Bp590-42" value="Reducers" style="text;html=1;strokeColor=none;fillColor=none;align=center;verticalAlign=middle;whiteSpace=wrap;rounded=0;" parent="CEnsXvZs_I40ct4Bp590-40" vertex="1">
          <mxGeometry x="60" y="20" width="40" height="20" as="geometry" />
        </mxCell>
        <mxCell id="CEnsXvZs_I40ct4Bp590-44" value="Store" style="shape=cylinder3;whiteSpace=wrap;html=1;boundedLbl=1;backgroundOutline=1;size=15;" parent="CEnsXvZs_I40ct4Bp590-40" vertex="1">
          <mxGeometry x="50" y="40" width="50" height="60" as="geometry" />
        </mxCell>
        <mxCell id="CEnsXvZs_I40ct4Bp590-45" value="" style="endArrow=classic;html=1;entryX=0.5;entryY=0;entryDx=0;entryDy=0;" parent="1" source="CEnsXvZs_I40ct4Bp590-36" target="CEnsXvZs_I40ct4Bp590-41" edge="1">
          <mxGeometry width="50" height="50" relative="1" as="geometry">
            <mxPoint x="530" y="200" as="sourcePoint" />
            <mxPoint x="730" y="200" as="targetPoint" />
          </mxGeometry>
        </mxCell>
        <mxCell id="CEnsXvZs_I40ct4Bp590-46" value="" style="endArrow=classic;html=1;entryX=1;entryY=0.5;entryDx=0;entryDy=0;exitX=0;exitY=0.5;exitDx=0;exitDy=0;" parent="1" source="CEnsXvZs_I40ct4Bp590-41" target="CEnsXvZs_I40ct4Bp590-9" edge="1">
          <mxGeometry width="50" height="50" relative="1" as="geometry">
            <mxPoint x="577.0232558139535" y="210" as="sourcePoint" />
            <mxPoint x="580" y="370" as="targetPoint" />
          </mxGeometry>
        </mxCell>
        <mxCell id="CEnsXvZs_I40ct4Bp590-47" value="Selectors" style="text;html=1;strokeColor=none;fillColor=none;align=center;verticalAlign=middle;whiteSpace=wrap;rounded=0;" parent="1" vertex="1">
          <mxGeometry x="368" y="390" width="40" height="20" as="geometry" />
        </mxCell>
        <mxCell id="CEnsXvZs_I40ct4Bp590-48" value="Response Forwarded" style="text;html=1;strokeColor=none;fillColor=none;align=center;verticalAlign=middle;whiteSpace=wrap;rounded=0;" parent="1" vertex="1">
          <mxGeometry x="580" y="270" width="40" height="20" as="geometry" />
        </mxCell>
        <mxCell id="CEnsXvZs_I40ct4Bp590-50" value="Request" style="text;html=1;strokeColor=none;fillColor=none;align=center;verticalAlign=middle;whiteSpace=wrap;rounded=0;" parent="1" vertex="1">
          <mxGeometry x="680" y="94" width="40" height="20" as="geometry" />
        </mxCell>
        <mxCell id="CEnsXvZs_I40ct4Bp590-51" value="" style="endArrow=classic;html=1;" parent="1" edge="1">
          <mxGeometry width="50" height="50" relative="1" as="geometry">
            <mxPoint x="650" y="149" as="sourcePoint" />
            <mxPoint x="650" y="149" as="targetPoint" />
          </mxGeometry>
        </mxCell>
        <mxCell id="CEnsXvZs_I40ct4Bp590-52" value="Response" style="text;html=1;strokeColor=none;fillColor=none;align=center;verticalAlign=middle;whiteSpace=wrap;rounded=0;" parent="1" vertex="1">
          <mxGeometry x="680" y="134" width="40" height="20" as="geometry" />
        </mxCell>
        <mxCell id="CEnsXvZs_I40ct4Bp590-53" value="" style="endArrow=classic;html=1;entryX=0.994;entryY=0.618;entryDx=0;entryDy=0;entryPerimeter=0;" parent="1" target="CEnsXvZs_I40ct4Bp590-36" edge="1">
          <mxGeometry width="50" height="50" relative="1" as="geometry">
            <mxPoint x="780" y="158" as="sourcePoint" />
            <mxPoint x="890" y="143.95000000000005" as="targetPoint" />
          </mxGeometry>
        </mxCell>
        <mxCell id="CEnsXvZs_I40ct4Bp590-58" value="Redux Persist" style="ellipse;shape=umlControl;whiteSpace=wrap;html=1;pointerEvents=0;fillColor=#FFB8D2;gradientColor=none;" parent="1" vertex="1">
          <mxGeometry x="650" y="360" width="70" height="80" as="geometry" />
        </mxCell>
        <mxCell id="CEnsXvZs_I40ct4Bp590-59" value="&lt;font style=&quot;font-size: 6px&quot;&gt;Cached&amp;nbsp; TTL&lt;/font&gt;" style="ellipse;shape=umlControl;whiteSpace=wrap;html=1;pointerEvents=0;fillColor=#FFB8D2;gradientColor=none;" parent="1" vertex="1">
          <mxGeometry x="700" y="114" width="30" height="40" as="geometry" />
        </mxCell>
        <mxCell id="2qEzOm92XaDQ2icEULAy-1" value="" style="rounded=1;whiteSpace=wrap;html=1;fillColor=#FFD2C4;" vertex="1" parent="1">
          <mxGeometry x="120" y="550" width="160" height="60" as="geometry" />
        </mxCell>
        <mxCell id="2qEzOm92XaDQ2icEULAy-8" value="" style="group" vertex="1" connectable="0" parent="1">
          <mxGeometry x="130" y="410" width="155" height="50" as="geometry" />
        </mxCell>
        <mxCell id="2qEzOm92XaDQ2icEULAy-7" value="Containers" style="rounded=1;whiteSpace=wrap;html=1;" vertex="1" parent="2qEzOm92XaDQ2icEULAy-8">
          <mxGeometry y="20" width="100" height="30" as="geometry" />
        </mxCell>
        <mxCell id="CEnsXvZs_I40ct4Bp590-10" value="Containers" style="rounded=1;whiteSpace=wrap;html=1;" parent="2qEzOm92XaDQ2icEULAy-8" vertex="1">
          <mxGeometry x="20" y="10" width="100" height="30" as="geometry" />
        </mxCell>
        <mxCell id="2qEzOm92XaDQ2icEULAy-6" value="Containers" style="rounded=1;whiteSpace=wrap;html=1;" vertex="1" parent="2qEzOm92XaDQ2icEULAy-8">
          <mxGeometry x="46" width="100" height="30" as="geometry" />
        </mxCell>
        <mxCell id="2qEzOm92XaDQ2icEULAy-13" value="Presentation Component" style="text;html=1;strokeColor=none;fillColor=none;align=center;verticalAlign=middle;whiteSpace=wrap;rounded=0;" vertex="1" parent="1">
          <mxGeometry x="170" y="565" width="60" height="30" as="geometry" />
        </mxCell>
        <mxCell id="2qEzOm92XaDQ2icEULAy-16" value="" style="endArrow=classic;html=1;rounded=0;exitX=0.5;exitY=1;exitDx=0;exitDy=0;entryX=0.5;entryY=0;entryDx=0;entryDy=0;" edge="1" parent="1" source="2qEzOm92XaDQ2icEULAy-1" target="2qEzOm92XaDQ2icEULAy-5">
          <mxGeometry width="50" height="50" relative="1" as="geometry">
            <mxPoint x="460" y="550" as="sourcePoint" />
            <mxPoint x="510" y="500" as="targetPoint" />
          </mxGeometry>
        </mxCell>
        <mxCell id="2qEzOm92XaDQ2icEULAy-18" value="Presentation Component" style="text;html=1;strokeColor=none;fillColor=none;align=center;verticalAlign=middle;whiteSpace=wrap;rounded=0;" vertex="1" parent="1">
          <mxGeometry x="110" y="655" width="60" height="30" as="geometry" />
        </mxCell>
        <mxCell id="2qEzOm92XaDQ2icEULAy-21" value="" style="group" vertex="1" connectable="0" parent="1">
          <mxGeometry x="200" y="610" width="220" height="90" as="geometry" />
        </mxCell>
        <mxCell id="2qEzOm92XaDQ2icEULAy-3" value="" style="rounded=1;whiteSpace=wrap;html=1;fillColor=#FFD2C4;" vertex="1" parent="2qEzOm92XaDQ2icEULAy-21">
          <mxGeometry x="60" y="30" width="160" height="60" as="geometry" />
        </mxCell>
        <mxCell id="2qEzOm92XaDQ2icEULAy-17" value="" style="endArrow=classic;html=1;rounded=0;entryX=0.5;entryY=0;entryDx=0;entryDy=0;" edge="1" parent="2qEzOm92XaDQ2icEULAy-21" target="2qEzOm92XaDQ2icEULAy-3">
          <mxGeometry width="50" height="50" relative="1" as="geometry">
            <mxPoint as="sourcePoint" />
            <mxPoint x="-50" y="30" as="targetPoint" />
          </mxGeometry>
        </mxCell>
        <mxCell id="2qEzOm92XaDQ2icEULAy-19" value="Presentation Component" style="text;html=1;strokeColor=none;fillColor=none;align=center;verticalAlign=middle;whiteSpace=wrap;rounded=0;" vertex="1" parent="2qEzOm92XaDQ2icEULAy-21">
          <mxGeometry x="108" y="46" width="60" height="30" as="geometry" />
        </mxCell>
        <mxCell id="2qEzOm92XaDQ2icEULAy-24" value="" style="endArrow=classic;html=1;rounded=0;entryX=0.5;entryY=0;entryDx=0;entryDy=0;" edge="1" parent="1" target="2qEzOm92XaDQ2icEULAy-23">
          <mxGeometry width="50" height="50" relative="1" as="geometry">
            <mxPoint x="210" y="610" as="sourcePoint" />
            <mxPoint x="330" y="630" as="targetPoint" />
          </mxGeometry>
        </mxCell>
        <mxCell id="2qEzOm92XaDQ2icEULAy-27" value="" style="group" vertex="1" connectable="0" parent="1">
          <mxGeometry x="440" y="630" width="160" height="60" as="geometry" />
        </mxCell>
        <mxCell id="2qEzOm92XaDQ2icEULAy-23" value="" style="rounded=1;whiteSpace=wrap;html=1;fillColor=#FFD2C4;" vertex="1" parent="2qEzOm92XaDQ2icEULAy-27">
          <mxGeometry width="160" height="60" as="geometry" />
        </mxCell>
        <mxCell id="2qEzOm92XaDQ2icEULAy-25" value="Presentation Component" style="text;html=1;strokeColor=none;fillColor=none;align=center;verticalAlign=middle;whiteSpace=wrap;rounded=0;" vertex="1" parent="2qEzOm92XaDQ2icEULAy-27">
          <mxGeometry x="48" y="16" width="60" height="30" as="geometry" />
        </mxCell>
        <mxCell id="2qEzOm92XaDQ2icEULAy-28" value="" style="endArrow=classic;html=1;rounded=0;entryX=0.5;entryY=0;entryDx=0;entryDy=0;" edge="1" parent="1" target="2qEzOm92XaDQ2icEULAy-30">
          <mxGeometry width="50" height="50" relative="1" as="geometry">
            <mxPoint x="140" y="700" as="sourcePoint" />
            <mxPoint x="260" y="720" as="targetPoint" />
          </mxGeometry>
        </mxCell>
        <mxCell id="2qEzOm92XaDQ2icEULAy-29" value="" style="group" vertex="1" connectable="0" parent="1">
          <mxGeometry x="370" y="776" width="160" height="60" as="geometry" />
        </mxCell>
        <mxCell id="2qEzOm92XaDQ2icEULAy-30" value="" style="rounded=1;whiteSpace=wrap;html=1;fillColor=#FFD2C4;" vertex="1" parent="2qEzOm92XaDQ2icEULAy-29">
          <mxGeometry width="160" height="60" as="geometry" />
        </mxCell>
        <mxCell id="2qEzOm92XaDQ2icEULAy-31" value="Presentation Component" style="text;html=1;strokeColor=none;fillColor=none;align=center;verticalAlign=middle;whiteSpace=wrap;rounded=0;" vertex="1" parent="2qEzOm92XaDQ2icEULAy-29">
          <mxGeometry x="48" y="16" width="60" height="30" as="geometry" />
        </mxCell>
        <mxCell id="2qEzOm92XaDQ2icEULAy-32" value="" style="endArrow=classic;html=1;rounded=0;entryX=0.5;entryY=0;entryDx=0;entryDy=0;" edge="1" parent="1" target="2qEzOm92XaDQ2icEULAy-34">
          <mxGeometry width="50" height="50" relative="1" as="geometry">
            <mxPoint x="140" y="700" as="sourcePoint" />
            <mxPoint y="770" as="targetPoint" />
          </mxGeometry>
        </mxCell>
        <mxCell id="2qEzOm92XaDQ2icEULAy-33" value="" style="group" vertex="1" connectable="0" parent="1">
          <mxGeometry x="110" y="770" width="160" height="60" as="geometry" />
        </mxCell>
        <mxCell id="2qEzOm92XaDQ2icEULAy-34" value="" style="rounded=1;whiteSpace=wrap;html=1;fillColor=#FFD2C4;" vertex="1" parent="2qEzOm92XaDQ2icEULAy-33">
          <mxGeometry width="160" height="60" as="geometry" />
        </mxCell>
        <mxCell id="2qEzOm92XaDQ2icEULAy-35" value="Presentation Component" style="text;html=1;strokeColor=none;fillColor=none;align=center;verticalAlign=middle;whiteSpace=wrap;rounded=0;" vertex="1" parent="2qEzOm92XaDQ2icEULAy-33">
          <mxGeometry x="48" y="16" width="60" height="30" as="geometry" />
        </mxCell>
        <mxCell id="2qEzOm92XaDQ2icEULAy-37" value="" style="rounded=1;whiteSpace=wrap;html=1;fillColor=#66FFB3;" vertex="1" parent="1">
          <mxGeometry x="-120" y="360" width="160" height="110" as="geometry" />
        </mxCell>
        <mxCell id="2qEzOm92XaDQ2icEULAy-39" value="Bridge" style="text;html=1;strokeColor=none;fillColor=none;align=center;verticalAlign=middle;whiteSpace=wrap;rounded=0;" vertex="1" parent="1">
          <mxGeometry x="-70" y="397" width="60" height="30" as="geometry" />
        </mxCell>
        <mxCell id="2qEzOm92XaDQ2icEULAy-40" value="" style="rounded=1;whiteSpace=wrap;html=1;fillColor=#F8CECC;" vertex="1" parent="1">
          <mxGeometry x="-360" y="360" width="160" height="110" as="geometry" />
        </mxCell>
        <mxCell id="2qEzOm92XaDQ2icEULAy-42" value="Native" style="text;html=1;strokeColor=none;fillColor=none;align=center;verticalAlign=middle;whiteSpace=wrap;rounded=0;" vertex="1" parent="1">
          <mxGeometry x="-310" y="400" width="60" height="30" as="geometry" />
        </mxCell>
        <mxCell id="2qEzOm92XaDQ2icEULAy-43" value="" style="shape=flexArrow;endArrow=classic;startArrow=classic;html=1;rounded=0;entryX=0;entryY=0.5;entryDx=0;entryDy=0;exitX=1;exitY=0.5;exitDx=0;exitDy=0;" edge="1" parent="1" source="2qEzOm92XaDQ2icEULAy-40" target="2qEzOm92XaDQ2icEULAy-37">
          <mxGeometry width="100" height="100" relative="1" as="geometry">
            <mxPoint x="-200" y="420" as="sourcePoint" />
            <mxPoint x="-100" y="320" as="targetPoint" />
          </mxGeometry>
        </mxCell>
        <mxCell id="2qEzOm92XaDQ2icEULAy-44" value="" style="shape=flexArrow;endArrow=classic;startArrow=classic;html=1;rounded=0;entryX=0;entryY=0.5;entryDx=0;entryDy=0;exitX=1;exitY=0.5;exitDx=0;exitDy=0;" edge="1" parent="1">
          <mxGeometry width="100" height="100" relative="1" as="geometry">
            <mxPoint x="40" y="414.5" as="sourcePoint" />
            <mxPoint x="120" y="414.5" as="targetPoint" />
          </mxGeometry>
        </mxCell>
        <mxCell id="2qEzOm92XaDQ2icEULAy-46" value="" style="rounded=1;whiteSpace=wrap;html=1;fillColor=#FFF2CC;" vertex="1" parent="1">
          <mxGeometry x="770" y="90" width="160" height="110" as="geometry" />
        </mxCell>
        <mxCell id="2qEzOm92XaDQ2icEULAy-47" value="Services" style="text;html=1;strokeColor=none;fillColor=none;align=center;verticalAlign=middle;whiteSpace=wrap;rounded=0;" vertex="1" parent="1">
          <mxGeometry x="820" y="126" width="60" height="30" as="geometry" />
        </mxCell>
      </root>
    </mxGraphModel>
  </diagram>
</mxfile>
